<svg xmlns="http://www.w3.org/2000/svg" style="display:none">
	<symbol id="punycode" viewBox="0 0 120 120">
		<path d="M9.45,54.07V14.5h9.74A11.58,11.58,0,0,1,25.06,16a9.28,9.28,0,0,1,3.55,3.61,13,13,0,0,1,1.62,6.73A13.06,13.06,0,0,1,28.62,33a9.66,9.66,0,0,1-3.55,3.66,11.92,11.92,0,0,1-5.87,1.4H14.78v16Zm9.74-20.83a5.47,5.47,0,0,0,2.75-.67,4.87,4.87,0,0,0,1.88-2,8.32,8.32,0,0,0,1-4.31,8.32,8.32,0,0,0-1-4.31A5.15,5.15,0,0,0,21.94,20a5.3,5.3,0,0,0-2.75-.7H14.78V33.23Zm27,21.26a11,11,0,0,1-5.54-1.35,9.19,9.19,0,0,1-3.45-3.5,12.76,12.76,0,0,1-1.56-6.51V14.5H41V43.14a7.85,7.85,0,0,0,1,4.09,4.59,4.59,0,0,0,1.78,1.83,5.24,5.24,0,0,0,4.85,0,4.59,4.59,0,0,0,1.78-1.83,7.85,7.85,0,0,0,1-4.09V14.5h5.38V43.14a12.78,12.78,0,0,1-1.56,6.51,9.21,9.21,0,0,1-3.45,3.5A11,11,0,0,1,46.17,54.5Zm16.36-.43V14.5h6.41l10,31.27c0-1.18-.11-2.39-.22-3.61q-.48-6.3-.48-11.84V14.5h5.38V54.07H77.23l-10-31.28q.05,1.78.22,3.61.48,6.3.48,11.84V54.07Zm34.78,0V38.83l-4.41-8.72a28.9,28.9,0,0,1-3.45-13.24V14.5h5.38v2.37a24,24,0,0,0,2.85,11L100,32.42l2.32-4.52a24,24,0,0,0,2.85-11V14.5h5.38v2.37a28.93,28.93,0,0,1-3.45,13.24l-4.41,8.72V54.07Z"/>
		<path d="M19.84,105.5A11.5,11.5,0,0,1,13.92,104a9.1,9.1,0,0,1-3.5-3.5,12.38,12.38,0,0,1-1.56-6.41V76.43A12.38,12.38,0,0,1,10.42,70a9.1,9.1,0,0,1,3.5-3.5,11.47,11.47,0,0,1,5.92-1.45,11.48,11.48,0,0,1,5.92,1.45,9.36,9.36,0,0,1,3.55,3.55,10.55,10.55,0,0,1,1.35,3.77L25.44,75a7.47,7.47,0,0,0-.81-2.42,5.23,5.23,0,0,0-1.94-2,5.69,5.69,0,0,0-2.85-.67,5.56,5.56,0,0,0-2.8.67,4.94,4.94,0,0,0-1.88,1.91,7.84,7.84,0,0,0-.92,3.93V94.14A7,7,0,0,0,16,99.2a6.68,6.68,0,0,0,1,.75,5.4,5.4,0,0,0,2.8.7A5.69,5.69,0,0,0,22.7,100a5.23,5.23,0,0,0,1.94-2,7.47,7.47,0,0,0,.81-2.42l5.22,1.13a10.55,10.55,0,0,1-1.35,3.77A9.38,9.38,0,0,1,25.76,104,11.5,11.5,0,0,1,19.84,105.5Zm26.92,0a11.84,11.84,0,0,1-5.92-1.4,10.36,10.36,0,0,1-3.55-3.61,12.6,12.6,0,0,1-1.51-6.35V76.43a12.6,12.6,0,0,1,1.51-6.35,10.34,10.34,0,0,1,3.55-3.61,11.84,11.84,0,0,1,5.92-1.4,11.84,11.84,0,0,1,5.92,1.4,10.34,10.34,0,0,1,3.55,3.61,12.6,12.6,0,0,1,1.51,6.35V94.14a12.6,12.6,0,0,1-1.51,6.35,10.36,10.36,0,0,1-3.55,3.61A11.84,11.84,0,0,1,46.76,105.5Zm0-4.85a5.57,5.57,0,0,0,2.8-.67,5,5,0,0,0,1.88-1.91,7.84,7.84,0,0,0,.92-3.93V76.43a7.84,7.84,0,0,0-.92-3.93,5,5,0,0,0-1.88-1.91,6.16,6.16,0,0,0-5.6,0,4.94,4.94,0,0,0-1.88,1.91,7.84,7.84,0,0,0-.92,3.93V94.14a7.84,7.84,0,0,0,.92,3.93A4.94,4.94,0,0,0,44,100,5.56,5.56,0,0,0,46.76,100.65Zm16.36,4.41V65.5h9.1a12.13,12.13,0,0,1,6.19,1.56,11.25,11.25,0,0,1,4.14,4.25,17.51,17.51,0,0,1,2.1,8.93V90.32a17.52,17.52,0,0,1-2.1,8.94,11.23,11.23,0,0,1-4.14,4.25,12.1,12.1,0,0,1-6.19,1.56Zm5.38-4.85h3.71a6.15,6.15,0,0,0,3.12-.81,6.71,6.71,0,0,0,2.48-2.53,13.25,13.25,0,0,0,1.45-6.57V80.25a13.27,13.27,0,0,0-1.45-6.57,6.72,6.72,0,0,0-2.48-2.53,6.13,6.13,0,0,0-3.12-.81H68.51Zm23,4.85V65.5h19.65v4.84H96.87V81.27H108v4.85H96.87v14.1h14.27v4.85Z"/>
	</symbol>
	<symbol id="copy" viewBox="0 0 488.3 488.3">
		<path d="M314.25,85.4h-227c-21.3,0-38.6,17.3-38.6,38.6v325.7c0,21.3,17.3,38.6,38.6,38.6h227c21.3,0,38.6-17.3,38.6-38.6V124
			C352.75,102.7,335.45,85.4,314.25,85.4z M325.75,449.6c0,6.4-5.2,11.6-11.6,11.6h-227c-6.4,0-11.6-5.2-11.6-11.6V124
			c0-6.4,5.2-11.6,11.6-11.6h227c6.4,0,11.6,5.2,11.6,11.6V449.6z"/>
		<path d="M401.05,0h-227c-21.3,0-38.6,17.3-38.6,38.6c0,7.5,6,13.5,13.5,13.5s13.5-6,13.5-13.5c0-6.4,5.2-11.6,11.6-11.6h227
			c6.4,0,11.6,5.2,11.6,11.6v325.7c0,6.4-5.2,11.6-11.6,11.6c-7.5,0-13.5,6-13.5,13.5s6,13.5,13.5,13.5c21.3,0,38.6-17.3,38.6-38.6
			V38.6C439.65,17.3,422.35,0,401.05,0z"/>
	</symbol>
</svg>